<svg xmlns="http://www.w3.org/2000/svg" viewBox="0 0 64 64" fill="none" shape-rendering="auto" width="256" height="256"><metadata xmlns:rdf="http://www.w3.org/1999/02/22-rdf-syntax-ns#" xmlns:xsi="http://www.w3.org/2001/XMLSchema-instance" xmlns:dc="http://purl.org/dc/elements/1.1/" xmlns:dcterms="http://purl.org/dc/terms/"><rdf:RDF><rdf:Description><dc:title>Personas by Draftbit</dc:title><dc:creator>Draftbit - draftbit.com</dc:creator><dc:source xsi:type="dcterms:URI">https://personas.draftbit.com/</dc:source><dcterms:license xsi:type="dcterms:URI">https://creativecommons.org/licenses/by/4.0/</dcterms:license><dc:rights>Remix of „Personas by Draftbit” (https://personas.draftbit.com/) by „Draftbit - draftbit.com”, licensed under „CC BY 4.0” (https://creativecommons.org/licenses/by/4.0/)</dc:rights></rdf:Description></rdf:RDF></metadata><mask id="viewboxMask"><rect width="64" height="64" rx="32" ry="32" x="0" y="0" fill="#fff" /></mask><g mask="url(#viewboxMask)"><path d="M37 46.08V52a5 5 0 0 1-10 0v-5.92A14.04 14.04 0 0 1 18.58 37h-.08a4.5 4.5 0 0 1-.5-8.97V27a14 14 0 1 1 28 0v1.03a4.5 4.5 0 0 1-.58 8.97A14.04 14.04 0 0 1 37 46.08Z" fill="#92594b"/><mask id="personas-a" style="mask-type:luminance" maskUnits="userSpaceOnUse" x="14" y="13" width="36" height="44"><path d="M37 46.08V52a5 5 0 0 1-10 0v-5.92A14.04 14.04 0 0 1 18.58 37h-.08a4.5 4.5 0 0 1-.5-8.97V27a14 14 0 1 1 28 0v1.03a4.5 4.5 0 0 1-.58 8.97A14.04 14.04 0 0 1 37 46.08Z" fill="#fff"/></mask><g mask="url(#personas-a)"><path d="M32 13a14 14 0 0 1 14 14v6a14 14 0 1 1-28 0v-6a14 14 0 0 1 14-14Z" fill="#fff" style="mix-blend-mode:overlay" opacity=".36"/></g><g transform="translate(20 24)"><path d="M4 4.5a1.5 1.5 0 1 0 3 0 1.5 1.5 0 0 0-3 0ZM21.24 3.9a.75.75 0 0 0-.83-.64l-4 .5a.75.75 0 0 0 .18 1.48l4-.5c.41-.05.7-.42.65-.83Z" fill="#1B0640"/></g><g transform="translate(2 2)"><path d="m44 26-.02-.02-.3.02a2 2 0 0 1-1.8-2.88 2 2 0 0 1-2.73-2.1 2 2 0 0 1-3.3.56h-.02a1.99 1.99 0 0 1-2 2.05 2 2 0 0 1-1.75-1.04 2 2 0 0 1-3.92.33 2 2 0 0 1-3.87-.6c-.04 0-.09 0-.13-.02a2 2 0 0 1-3.67-.98c-.3-.1-.57-.2-.85-.32.02.09.02.17.02.26a2 2 0 0 1-2.74 1.86A2 2 0 0 1 16 25.8v.23a4.5 4.5 0 0 0 .58 8.97A14.04 14.04 0 0 0 25 44.08v3.06c-.25-.2-.47-.42-.65-.68-.49-.13-.96-.29-1.43-.46a3.46 3.46 0 0 1-4.54-2.3 20.9 20.9 0 0 1-.98-.7 3.46 3.46 0 0 1-3.83-3.8c-.17-.21-.34-.43-.5-.66a3.46 3.46 0 0 1-2.66-5.07l-.14-.39a3.47 3.47 0 0 1-1.08-5.96v-.01a3.47 3.47 0 0 1 .47-6.2 3.47 3.47 0 0 1 2.28-5.79 3.47 3.47 0 0 1 3.87-4.86 3.47 3.47 0 0 1 5.15-3.5 3.47 3.47 0 0 1 5.94-1.83 3.47 3.47 0 0 1 6.22 0 3.47 3.47 0 0 1 5.94 1.83 3.47 3.47 0 0 1 5.14 3.5 3.47 3.47 0 0 1 3.87 4.86 3.47 3.47 0 0 1 2.28 5.8 3.47 3.47 0 0 1 .47 6.19 3.47 3.47 0 0 1-1.08 5.97l-.14.4a3.47 3.47 0 0 1-2.66 5.06c-.16.23-.33.45-.5.66A3.46 3.46 0 0 1 42.6 43l-.98.7a3.46 3.46 0 0 1-4.54 2.3c-.47.17-.94.33-1.43.46-.18.26-.4.49-.65.68v-3.06A14.04 14.04 0 0 0 43.42 35h.08a4.5 4.5 0 0 0 .5-8.97V26Z" fill="#f29c65"/><mask id="hairCurly-a" style="mask-type:luminance" maskUnits="userSpaceOnUse" x="7" y="3" width="46" height="45"><path d="m44 26-.02-.02-.3.02a2 2 0 0 1-1.8-2.88 2 2 0 0 1-2.73-2.1 2 2 0 0 1-3.3.56h-.02a1.99 1.99 0 0 1-2 2.05 2 2 0 0 1-1.75-1.04 2 2 0 0 1-3.92.33 2 2 0 0 1-3.87-.6c-.04 0-.09 0-.13-.02a2 2 0 0 1-3.67-.98c-.3-.1-.57-.2-.85-.32.02.09.02.17.02.26a2 2 0 0 1-2.74 1.86A2 2 0 0 1 16 25.8v.23a4.5 4.5 0 0 0 .58 8.97A14.04 14.04 0 0 0 25 44.08v3.06c-.25-.2-.47-.42-.65-.68-.49-.13-.96-.29-1.43-.46a3.46 3.46 0 0 1-4.54-2.3 20.9 20.9 0 0 1-.98-.7 3.46 3.46 0 0 1-3.83-3.8c-.17-.21-.34-.43-.5-.66a3.46 3.46 0 0 1-2.66-5.07l-.14-.39a3.47 3.47 0 0 1-1.08-5.96v-.01a3.47 3.47 0 0 1 .47-6.2 3.47 3.47 0 0 1 2.28-5.79 3.47 3.47 0 0 1 3.87-4.86 3.47 3.47 0 0 1 5.15-3.5 3.47 3.47 0 0 1 5.94-1.83 3.47 3.47 0 0 1 6.22 0 3.47 3.47 0 0 1 5.94 1.83 3.47 3.47 0 0 1 5.14 3.5 3.47 3.47 0 0 1 3.87 4.86 3.47 3.47 0 0 1 2.28 5.8 3.47 3.47 0 0 1 .47 6.19 3.47 3.47 0 0 1-1.08 5.97l-.14.4a3.47 3.47 0 0 1-2.66 5.06c-.16.23-.33.45-.5.66A3.46 3.46 0 0 1 42.6 43l-.98.7a3.46 3.46 0 0 1-4.54 2.3c-.47.17-.94.33-1.43.46-.18.26-.4.49-.65.68v-3.06A14.04 14.04 0 0 0 43.42 35h.08a4.5 4.5 0 0 0 .5-8.97V26Z" fill="#fff"/></mask><g mask="url(#hairCurly-a)"><path fill="#fff" d="M7 3h46v44H7z" style="mix-blend-mode:overlay" opacity=".26"/></g></g><g transform="translate(11 44)"><path d="M32 20H10v-8a11 11 0 0 1 6-9.8V4a5 5 0 0 0 10 0V2.2a11 11 0 0 1 6 9.8v8Z" fill="#54d7c7"/><mask id="bodySmall-a" style="mask-type:luminance" maskUnits="userSpaceOnUse" x="10" y="2" width="22" height="18"><path d="M32 20H10v-8a11 11 0 0 1 6-9.8V4a5 5 0 0 0 10 0V2.2a11 11 0 0 1 6 9.8v8Z" fill="#fff"/></mask><g mask="url(#bodySmall-a)"><path opacity=".14" d="M20.62 8.25 22 8l1.2.5L10 15l10.62-6.75Z" fill="#000"/><path d="M21 1h11v47H10V15l13.34-6.58L21 1Z" fill="#fff" style="mix-blend-mode:overlay" opacity=".26"/></g></g><g transform="translate(23 36)"><path fill-rule="evenodd" clip-rule="evenodd" d="M9 2c-.76 0-1.51-.14-2.27-.41A2.03 2.03 0 0 0 4 3.5c0 1.4.82 2.6 2 3.17a3 3 0 0 0 6 0 3.5 3.5 0 0 0 2-3.17 2.03 2.03 0 0 0-2.73-1.91C10.51 1.86 9.76 2 9 2ZM7.59 7h2.82A1.5 1.5 0 0 1 7.6 7Z" fill="#456DFF"/><path fill-rule="evenodd" clip-rule="evenodd" d="M12 6.5v.17a3.5 3.5 0 0 0 2-3.17 2.03 2.03 0 0 0-2.73-1.91 6.61 6.61 0 0 1-4.54 0A2.03 2.03 0 0 0 4 3.5c0 1.4.82 2.6 2 3.17V6.5a3 3 0 1 1 6 0ZM7.59 7h2.82A1.5 1.5 0 1 0 7.6 7Z" fill="#fff" fill-opacity=".3" style="mix-blend-mode:lighten"/><circle cx="9" cy="4.5" r="1.5" fill="#fff"/></g><g transform="translate(24 28)"><path opacity=".12" fill-rule="evenodd" clip-rule="evenodd" d="M11.72 5.3c.21.73.27 1.38.2 1.95a20.24 20.24 0 0 1 2.12 4.41.5.5 0 1 0 .94-.32 21.23 21.23 0 0 0-3.4-6.3c.07.07.11.16.14.25Zm-7.44 0a.75.75 0 0 1 .11-.24 28.75 28.75 0 0 0-2.07 3.22c-.48.89-.9 1.9-1.3 3.06a.5.5 0 0 0 .94.32 20.24 20.24 0 0 1 2.12-4.4 4.77 4.77 0 0 1 .19-1.97Z" fill="#000"/><path d="M5.2 4.78a.75.75 0 0 0-.92.51c-.21.75-.27 1.4-.2 1.97.23 1.6 1.6 2.49 3.92 2.49 2.33 0 3.7-.89 3.92-2.5.07-.57.01-1.22-.2-1.96a.75.75 0 1 0-1.44.42c.52 1.83-.09 2.54-2.28 2.54-2.2 0-2.8-.71-2.28-2.54a.75.75 0 0 0-.51-.93Z" fill="#000" style="mix-blend-mode:overlay" opacity=".36"/></g><g transform="translate(14 26)"></g></g></svg>